<mxfile host="Electron" modified="2023-06-09T11:58:45.334Z" agent="Mozilla/5.0 (Windows NT 10.0; Win64; x64) AppleWebKit/537.36 (KHTML, like Gecko) draw.io/21.2.8 Chrome/112.0.5615.165 Electron/24.2.0 Safari/537.36" etag="ZcP3V9Fn1VqwqfC6flRo" version="21.2.8" type="device" pages="2">
  <diagram name="循环引用问题" id="QFnFlW0wNgPCHSJ1iOqQ">
    <mxGraphModel dx="1949" dy="773" grid="1" gridSize="10" guides="1" tooltips="1" connect="1" arrows="1" fold="1" page="1" pageScale="1" pageWidth="827" pageHeight="1169" math="0" shadow="0">
      <root>
        <mxCell id="0" />
        <mxCell id="1" parent="0" />
        <mxCell id="WgvtRexEthuqv1guoZb1-24" value="" style="rounded=0;whiteSpace=wrap;html=1;strokeColor=#3936f2;strokeWidth=2;fontFamily=Helvetica;fontSize=12;fontColor=default;fillColor=#ffffff;dashed=1;" parent="1" vertex="1">
          <mxGeometry x="540" y="150" width="200" height="360" as="geometry" />
        </mxCell>
        <mxCell id="WgvtRexEthuqv1guoZb1-3" style="edgeStyle=orthogonalEdgeStyle;rounded=0;orthogonalLoop=1;jettySize=auto;html=1;exitX=0.5;exitY=1;exitDx=0;exitDy=0;entryX=0.5;entryY=0;entryDx=0;entryDy=0;fontFamily=Helvetica;fontSize=12;fontColor=default;endArrow=blockThin;endFill=1;strokeWidth=2;dashed=1;" parent="1" source="WgvtRexEthuqv1guoZb1-1" target="WgvtRexEthuqv1guoZb1-2" edge="1">
          <mxGeometry relative="1" as="geometry" />
        </mxCell>
        <mxCell id="WgvtRexEthuqv1guoZb1-5" style="edgeStyle=orthogonalEdgeStyle;shape=connector;rounded=0;orthogonalLoop=1;jettySize=auto;html=1;exitX=1;exitY=0.5;exitDx=0;exitDy=0;entryX=0;entryY=0.5;entryDx=0;entryDy=0;labelBackgroundColor=default;strokeColor=default;strokeWidth=2;fontFamily=Helvetica;fontSize=12;fontColor=default;endArrow=blockThin;endFill=1;" parent="1" source="WgvtRexEthuqv1guoZb1-1" target="WgvtRexEthuqv1guoZb1-4" edge="1">
          <mxGeometry relative="1" as="geometry" />
        </mxCell>
        <mxCell id="WgvtRexEthuqv1guoZb1-1" value="实例化userService" style="rounded=1;whiteSpace=wrap;html=1;fillColor=#d5e8d4;strokeColor=#000000;strokeWidth=2;fontStyle=1" parent="1" vertex="1">
          <mxGeometry x="150" y="190" width="150" height="50" as="geometry" />
        </mxCell>
        <mxCell id="WgvtRexEthuqv1guoZb1-2" value="&lt;b&gt;开辟内存存储userService&lt;/b&gt;" style="rounded=1;whiteSpace=wrap;html=1;strokeColor=#000000;strokeWidth=2;fontFamily=Helvetica;fontSize=12;fontColor=#333333;fillColor=#f5f5f5;" parent="1" vertex="1">
          <mxGeometry x="150" y="280" width="150" height="55" as="geometry" />
        </mxCell>
        <mxCell id="WgvtRexEthuqv1guoZb1-7" style="edgeStyle=orthogonalEdgeStyle;shape=connector;rounded=0;orthogonalLoop=1;jettySize=auto;html=1;exitX=1;exitY=0.5;exitDx=0;exitDy=0;entryX=0;entryY=0.5;entryDx=0;entryDy=0;labelBackgroundColor=default;strokeColor=default;strokeWidth=2;fontFamily=Helvetica;fontSize=12;fontColor=default;endArrow=blockThin;endFill=1;" parent="1" source="WgvtRexEthuqv1guoZb1-4" target="WgvtRexEthuqv1guoZb1-6" edge="1">
          <mxGeometry relative="1" as="geometry" />
        </mxCell>
        <mxCell id="WgvtRexEthuqv1guoZb1-4" value="初始化userService" style="rounded=1;whiteSpace=wrap;html=1;fillColor=#00C3FF;strokeColor=#000000;strokeWidth=2;fontStyle=1" parent="1" vertex="1">
          <mxGeometry x="360" y="190" width="150" height="50" as="geometry" />
        </mxCell>
        <mxCell id="WgvtRexEthuqv1guoZb1-9" value="有" style="edgeStyle=orthogonalEdgeStyle;shape=connector;rounded=0;orthogonalLoop=1;jettySize=auto;html=1;exitX=1;exitY=0.5;exitDx=0;exitDy=0;labelBackgroundColor=default;strokeColor=default;strokeWidth=2;fontFamily=Helvetica;fontSize=12;fontColor=default;endArrow=blockThin;endFill=1;" parent="1" source="WgvtRexEthuqv1guoZb1-6" target="WgvtRexEthuqv1guoZb1-8" edge="1">
          <mxGeometry relative="1" as="geometry" />
        </mxCell>
        <mxCell id="WgvtRexEthuqv1guoZb1-15" value="无" style="edgeStyle=orthogonalEdgeStyle;shape=connector;rounded=0;orthogonalLoop=1;jettySize=auto;html=1;exitX=0.5;exitY=1;exitDx=0;exitDy=0;labelBackgroundColor=default;strokeColor=default;strokeWidth=2;fontFamily=Helvetica;fontSize=12;fontColor=default;endArrow=blockThin;endFill=1;" parent="1" source="WgvtRexEthuqv1guoZb1-6" target="WgvtRexEthuqv1guoZb1-12" edge="1">
          <mxGeometry relative="1" as="geometry">
            <Array as="points">
              <mxPoint x="645" y="380" />
              <mxPoint x="225" y="380" />
            </Array>
          </mxGeometry>
        </mxCell>
        <mxCell id="WgvtRexEthuqv1guoZb1-6" value="容器中是否有userDao" style="rhombus;whiteSpace=wrap;html=1;rounded=1;strokeColor=#000000;strokeWidth=2;fontFamily=Helvetica;fontSize=12;fontColor=default;fillColor=#f4b87b;arcSize=1;fontStyle=1" parent="1" vertex="1">
          <mxGeometry x="570" y="175" width="150" height="80" as="geometry" />
        </mxCell>
        <mxCell id="WgvtRexEthuqv1guoZb1-8" value="直接赋值后方法返回执行后续初始化环节" style="rounded=1;whiteSpace=wrap;html=1;strokeWidth=2;fontFamily=Helvetica;fontSize=12;dashed=1;" parent="1" vertex="1">
          <mxGeometry x="790" y="185" width="120" height="60" as="geometry" />
        </mxCell>
        <mxCell id="WgvtRexEthuqv1guoZb1-10" style="edgeStyle=orthogonalEdgeStyle;rounded=0;orthogonalLoop=1;jettySize=auto;html=1;exitX=0.5;exitY=1;exitDx=0;exitDy=0;entryX=0.5;entryY=0;entryDx=0;entryDy=0;fontFamily=Helvetica;fontSize=12;fontColor=default;endArrow=blockThin;endFill=1;strokeWidth=2;dashed=1;" parent="1" source="WgvtRexEthuqv1guoZb1-12" target="WgvtRexEthuqv1guoZb1-13" edge="1">
          <mxGeometry relative="1" as="geometry" />
        </mxCell>
        <mxCell id="WgvtRexEthuqv1guoZb1-11" style="edgeStyle=orthogonalEdgeStyle;shape=connector;rounded=0;orthogonalLoop=1;jettySize=auto;html=1;exitX=1;exitY=0.5;exitDx=0;exitDy=0;entryX=0;entryY=0.5;entryDx=0;entryDy=0;labelBackgroundColor=default;strokeColor=default;strokeWidth=2;fontFamily=Helvetica;fontSize=12;fontColor=default;endArrow=blockThin;endFill=1;" parent="1" source="WgvtRexEthuqv1guoZb1-12" target="WgvtRexEthuqv1guoZb1-14" edge="1">
          <mxGeometry relative="1" as="geometry" />
        </mxCell>
        <mxCell id="WgvtRexEthuqv1guoZb1-12" value="实例化userDao" style="rounded=1;whiteSpace=wrap;html=1;fillColor=#d5e8d4;strokeColor=#000000;strokeWidth=2;fontStyle=1" parent="1" vertex="1">
          <mxGeometry x="150" y="420" width="150" height="50" as="geometry" />
        </mxCell>
        <mxCell id="WgvtRexEthuqv1guoZb1-13" value="&lt;b&gt;开辟内存存储userDao&lt;/b&gt;" style="rounded=1;whiteSpace=wrap;html=1;strokeColor=#000000;strokeWidth=2;fontFamily=Helvetica;fontSize=12;fontColor=#333333;fillColor=#f5f5f5;" parent="1" vertex="1">
          <mxGeometry x="150" y="510" width="150" height="55" as="geometry" />
        </mxCell>
        <mxCell id="WgvtRexEthuqv1guoZb1-17" style="edgeStyle=orthogonalEdgeStyle;shape=connector;rounded=0;orthogonalLoop=1;jettySize=auto;html=1;exitX=1;exitY=0.5;exitDx=0;exitDy=0;entryX=0;entryY=0.5;entryDx=0;entryDy=0;labelBackgroundColor=default;strokeColor=default;strokeWidth=2;fontFamily=Helvetica;fontSize=12;fontColor=default;endArrow=blockThin;endFill=1;" parent="1" source="WgvtRexEthuqv1guoZb1-14" target="WgvtRexEthuqv1guoZb1-16" edge="1">
          <mxGeometry relative="1" as="geometry" />
        </mxCell>
        <mxCell id="WgvtRexEthuqv1guoZb1-14" value="初始化userDao" style="rounded=1;whiteSpace=wrap;html=1;fillColor=#00C3FF;strokeColor=#000000;strokeWidth=2;fontStyle=1" parent="1" vertex="1">
          <mxGeometry x="360" y="420" width="150" height="50" as="geometry" />
        </mxCell>
        <mxCell id="WgvtRexEthuqv1guoZb1-19" value="有" style="edgeStyle=orthogonalEdgeStyle;shape=connector;rounded=0;orthogonalLoop=1;jettySize=auto;html=1;exitX=1;exitY=0.5;exitDx=0;exitDy=0;entryX=0;entryY=0.5;entryDx=0;entryDy=0;labelBackgroundColor=default;strokeColor=default;strokeWidth=2;fontFamily=Helvetica;fontSize=12;fontColor=default;endArrow=blockThin;endFill=1;" parent="1" source="WgvtRexEthuqv1guoZb1-16" target="WgvtRexEthuqv1guoZb1-18" edge="1">
          <mxGeometry relative="1" as="geometry" />
        </mxCell>
        <mxCell id="SbguJg_0TArjm7-SD2Il-1" value="无" style="edgeStyle=orthogonalEdgeStyle;rounded=0;orthogonalLoop=1;jettySize=auto;html=1;exitX=0.5;exitY=1;exitDx=0;exitDy=0;entryX=0.5;entryY=0;entryDx=0;entryDy=0;strokeWidth=2;endArrow=blockThin;endFill=1;" edge="1" parent="1" source="WgvtRexEthuqv1guoZb1-16" target="WgvtRexEthuqv1guoZb1-1">
          <mxGeometry x="-0.961" relative="1" as="geometry">
            <Array as="points">
              <mxPoint x="645" y="550" />
              <mxPoint x="1010" y="550" />
              <mxPoint x="1010" y="80" />
              <mxPoint x="225" y="80" />
            </Array>
            <mxPoint as="offset" />
          </mxGeometry>
        </mxCell>
        <mxCell id="WgvtRexEthuqv1guoZb1-16" value="容器中是否有userService" style="rhombus;whiteSpace=wrap;html=1;rounded=1;strokeColor=#000000;strokeWidth=2;fontFamily=Helvetica;fontSize=12;fontColor=default;fillColor=#f4b87b;arcSize=1;fontStyle=1" parent="1" vertex="1">
          <mxGeometry x="570" y="405" width="150" height="80" as="geometry" />
        </mxCell>
        <mxCell id="WgvtRexEthuqv1guoZb1-18" value="直接赋值后方法返回执行后续初始化环节" style="rounded=1;whiteSpace=wrap;html=1;strokeWidth=2;fontFamily=Helvetica;fontSize=12;dashed=1;" parent="1" vertex="1">
          <mxGeometry x="790" y="415" width="120" height="60" as="geometry" />
        </mxCell>
        <mxCell id="WgvtRexEthuqv1guoZb1-20" value="&lt;b&gt;&lt;font style=&quot;font-size: 14px;&quot;&gt;半成品&lt;/font&gt;&lt;/b&gt;" style="text;html=1;strokeColor=none;fillColor=none;align=center;verticalAlign=middle;whiteSpace=wrap;rounded=0;fontSize=12;fontFamily=Helvetica;fontColor=default;" parent="1" vertex="1">
          <mxGeometry x="300" y="293" width="60" height="30" as="geometry" />
        </mxCell>
        <mxCell id="WgvtRexEthuqv1guoZb1-21" value="&lt;b&gt;&lt;font style=&quot;font-size: 14px;&quot;&gt;半成品&lt;/font&gt;&lt;/b&gt;" style="text;html=1;strokeColor=none;fillColor=none;align=center;verticalAlign=middle;whiteSpace=wrap;rounded=0;fontSize=12;fontFamily=Helvetica;fontColor=default;" parent="1" vertex="1">
          <mxGeometry x="300" y="522.5" width="60" height="30" as="geometry" />
        </mxCell>
        <mxCell id="WgvtRexEthuqv1guoZb1-22" value="userService和userDao相互循环依赖" style="text;html=1;strokeColor=none;fillColor=none;align=center;verticalAlign=middle;whiteSpace=wrap;rounded=0;fontSize=12;fontFamily=Helvetica;fontColor=default;fontStyle=1" parent="1" vertex="1">
          <mxGeometry x="235" y="135" width="230" height="40" as="geometry" />
        </mxCell>
        <mxCell id="WgvtRexEthuqv1guoZb1-25" value="没有相应的Bean注入陷入死循环：singletonObjects只存放完整的Bean。" style="text;html=1;strokeColor=none;fillColor=none;align=center;verticalAlign=middle;whiteSpace=wrap;rounded=0;fontSize=14;fontFamily=Helvetica;fontColor=default;fontStyle=1" parent="1" vertex="1">
          <mxGeometry x="760" y="315" width="250" height="30" as="geometry" />
        </mxCell>
        <mxCell id="WgvtRexEthuqv1guoZb1-26" value="没有三级缓存的循环依赖问题" style="text;html=1;strokeColor=none;fillColor=none;align=center;verticalAlign=middle;whiteSpace=wrap;rounded=0;fontSize=17;fontFamily=Helvetica;fontColor=default;fontStyle=1" parent="1" vertex="1">
          <mxGeometry x="210" y="110" width="280" height="40" as="geometry" />
        </mxCell>
        <mxCell id="WgvtRexEthuqv1guoZb1-29" style="edgeStyle=orthogonalEdgeStyle;shape=connector;rounded=0;orthogonalLoop=1;jettySize=auto;html=1;exitX=1;exitY=0.5;exitDx=0;exitDy=0;entryX=0;entryY=0.5;entryDx=0;entryDy=0;labelBackgroundColor=default;strokeColor=default;strokeWidth=2;fontFamily=Helvetica;fontSize=12;fontColor=default;endArrow=blockThin;endFill=1;" parent="1" source="WgvtRexEthuqv1guoZb1-27" target="WgvtRexEthuqv1guoZb1-1" edge="1">
          <mxGeometry relative="1" as="geometry" />
        </mxCell>
        <mxCell id="WgvtRexEthuqv1guoZb1-27" value="getBean(&quot;userService&quot;)" style="text;html=1;strokeColor=none;fillColor=none;align=center;verticalAlign=middle;whiteSpace=wrap;rounded=0;fontSize=13;fontFamily=Helvetica;fontColor=default;fontStyle=1" parent="1" vertex="1">
          <mxGeometry x="-40" y="200" width="160" height="31.5" as="geometry" />
        </mxCell>
        <mxCell id="WgvtRexEthuqv1guoZb1-32" style="edgeStyle=orthogonalEdgeStyle;shape=connector;rounded=0;orthogonalLoop=1;jettySize=auto;html=1;exitX=1;exitY=0.5;exitDx=0;exitDy=0;entryX=0;entryY=0.5;entryDx=0;entryDy=0;labelBackgroundColor=default;strokeColor=default;strokeWidth=2;fontFamily=Helvetica;fontSize=12;fontColor=default;endArrow=blockThin;endFill=1;" parent="1" source="WgvtRexEthuqv1guoZb1-30" target="WgvtRexEthuqv1guoZb1-12" edge="1">
          <mxGeometry relative="1" as="geometry" />
        </mxCell>
        <mxCell id="WgvtRexEthuqv1guoZb1-30" value="getBean(&quot;userDao&quot;)" style="text;html=1;strokeColor=none;fillColor=none;align=center;verticalAlign=middle;whiteSpace=wrap;rounded=0;fontSize=13;fontFamily=Helvetica;fontColor=default;fontStyle=1" parent="1" vertex="1">
          <mxGeometry x="-10" y="429.62" width="130" height="30.75" as="geometry" />
        </mxCell>
      </root>
    </mxGraphModel>
  </diagram>
  <diagram id="2jm7DkhbIHNBXpPxj0OD" name="第 2 页">
    <mxGraphModel dx="954" dy="657" grid="1" gridSize="10" guides="1" tooltips="1" connect="1" arrows="1" fold="1" page="1" pageScale="1" pageWidth="827" pageHeight="1169" math="0" shadow="0">
      <root>
        <mxCell id="0" />
        <mxCell id="1" parent="0" />
      </root>
    </mxGraphModel>
  </diagram>
</mxfile>
